<svg xmlns="http://www.w3.org/2000/svg" xmlns:xlink="http://www.w3.org/1999/xlink" width="500" zoomAndPan="magnify" viewBox="0 0 375 374.999991" height="500" preserveAspectRatio="xMidYMid meet" version="1.0"><defs><g/><clipPath id="7149ce1129"><path d="M 109.898438 65.703125 L 265.148438 65.703125 L 265.148438 220.953125 L 109.898438 220.953125 Z M 109.898438 65.703125 " clip-rule="nonzero"/></clipPath><clipPath id="58bad5deaa"><path d="M 123.605469 101.195312 L 251.105469 101.195312 L 251.105469 194.945312 L 123.605469 194.945312 Z M 123.605469 101.195312 " clip-rule="nonzero"/></clipPath></defs><rect x="-37.5" width="450" fill="#ffffff" y="-37.499999" height="449.999989" fill-opacity="1"/><rect x="-37.5" width="450" fill="#ffffff" y="-37.499999" height="449.999989" fill-opacity="1"/><rect x="-37.5" width="450" fill="#ffffff" y="-37.499999" height="449.999989" fill-opacity="1"/><g clip-path="url(#7149ce1129)"><path fill="#000957" d="M 265.148438 143.328125 C 265.148438 144.597656 265.117188 145.867188 265.054688 147.136719 C 264.996094 148.402344 264.902344 149.671875 264.777344 150.933594 C 264.652344 152.199219 264.496094 153.460938 264.308594 154.714844 C 264.125 155.972656 263.90625 157.222656 263.660156 158.46875 C 263.410156 159.714844 263.132812 160.957031 262.824219 162.1875 C 262.515625 163.421875 262.175781 164.644531 261.808594 165.859375 C 261.4375 167.074219 261.039062 168.28125 260.613281 169.476562 C 260.183594 170.671875 259.726562 171.859375 259.242188 173.03125 C 258.753906 174.207031 258.242188 175.367188 257.695312 176.515625 C 257.152344 177.664062 256.582031 178.796875 255.984375 179.917969 C 255.386719 181.039062 254.757812 182.144531 254.105469 183.234375 C 253.453125 184.324219 252.773438 185.394531 252.066406 186.453125 C 251.363281 187.507812 250.628906 188.546875 249.875 189.566406 C 249.117188 190.589844 248.335938 191.589844 247.53125 192.570312 C 246.722656 193.554688 245.894531 194.515625 245.042969 195.457031 C 244.1875 196.398438 243.3125 197.316406 242.414062 198.214844 C 241.515625 199.113281 240.597656 199.988281 239.65625 200.84375 C 238.714844 201.695312 237.75 202.527344 236.769531 203.332031 C 235.789062 204.136719 234.785156 204.917969 233.765625 205.675781 C 232.746094 206.433594 231.707031 207.164062 230.652344 207.871094 C 229.59375 208.574219 228.523438 209.253906 227.433594 209.90625 C 226.34375 210.5625 225.238281 211.1875 224.117188 211.785156 C 222.996094 212.382812 221.863281 212.957031 220.714844 213.5 C 219.566406 214.042969 218.40625 214.554688 217.230469 215.042969 C 216.058594 215.527344 214.871094 215.984375 213.675781 216.414062 C 212.480469 216.839844 211.273438 217.238281 210.058594 217.609375 C 208.84375 217.976562 207.617188 218.316406 206.386719 218.625 C 205.152344 218.933594 203.914062 219.210938 202.667969 219.460938 C 201.421875 219.707031 200.171875 219.925781 198.914062 220.109375 C 197.660156 220.296875 196.398438 220.453125 195.132812 220.578125 C 193.871094 220.703125 192.601562 220.796875 191.332031 220.859375 C 190.066406 220.921875 188.796875 220.953125 187.523438 220.953125 C 186.253906 220.953125 184.984375 220.921875 183.714844 220.859375 C 182.449219 220.796875 181.179688 220.703125 179.917969 220.578125 C 178.652344 220.453125 177.390625 220.296875 176.136719 220.109375 C 174.878906 219.925781 173.628906 219.707031 172.382812 219.460938 C 171.136719 219.210938 169.894531 218.933594 168.664062 218.625 C 167.429688 218.316406 166.207031 217.976562 164.992188 217.609375 C 163.777344 217.238281 162.570312 216.839844 161.375 216.414062 C 160.179688 215.984375 158.992188 215.527344 157.820312 215.042969 C 156.644531 214.554688 155.484375 214.042969 154.335938 213.5 C 153.1875 212.957031 152.054688 212.382812 150.933594 211.785156 C 149.8125 211.1875 148.707031 210.5625 147.617188 209.90625 C 146.527344 209.253906 145.457031 208.574219 144.398438 207.871094 C 143.34375 207.164062 142.304688 206.433594 141.285156 205.675781 C 140.261719 204.917969 139.261719 204.136719 138.28125 203.332031 C 137.296875 202.527344 136.335938 201.695312 135.394531 200.84375 C 134.453125 199.988281 133.535156 199.113281 132.636719 198.214844 C 131.738281 197.316406 130.863281 196.398438 130.007812 195.457031 C 129.15625 194.515625 128.324219 193.554688 127.519531 192.570312 C 126.714844 191.589844 125.933594 190.589844 125.175781 189.566406 C 124.417969 188.546875 123.6875 187.507812 122.980469 186.453125 C 122.277344 185.394531 121.597656 184.324219 120.945312 183.234375 C 120.289062 182.144531 119.664062 181.039062 119.066406 179.917969 C 118.46875 178.796875 117.894531 177.664062 117.351562 176.515625 C 116.808594 175.367188 116.296875 174.207031 115.808594 173.03125 C 115.324219 171.859375 114.867188 170.671875 114.4375 169.476562 C 114.007812 168.28125 113.613281 167.074219 113.242188 165.859375 C 112.875 164.644531 112.535156 163.421875 112.226562 162.1875 C 111.917969 160.957031 111.640625 159.714844 111.390625 158.46875 C 111.144531 157.222656 110.925781 155.972656 110.742188 154.714844 C 110.554688 153.460938 110.398438 152.199219 110.273438 150.933594 C 110.148438 149.671875 110.054688 148.402344 109.992188 147.136719 C 109.929688 145.867188 109.898438 144.597656 109.898438 143.328125 C 109.898438 142.054688 109.929688 140.785156 109.992188 139.519531 C 110.054688 138.25 110.148438 136.980469 110.273438 135.71875 C 110.398438 134.453125 110.554688 133.191406 110.742188 131.9375 C 110.925781 130.679688 111.144531 129.429688 111.390625 128.183594 C 111.640625 126.9375 111.917969 125.699219 112.226562 124.464844 C 112.535156 123.234375 112.875 122.007812 113.242188 120.792969 C 113.613281 119.578125 114.007812 118.371094 114.4375 117.175781 C 114.867188 115.980469 115.324219 114.792969 115.808594 113.621094 C 116.296875 112.445312 116.808594 111.285156 117.351562 110.136719 C 117.894531 108.988281 118.46875 107.855469 119.066406 106.734375 C 119.664062 105.613281 120.289062 104.507812 120.945312 103.417969 C 121.597656 102.328125 122.277344 101.257812 122.980469 100.199219 C 123.6875 99.144531 124.417969 98.105469 125.175781 97.085938 C 125.933594 96.066406 126.714844 95.0625 127.519531 94.082031 C 128.324219 93.101562 129.15625 92.136719 130.007812 91.195312 C 130.863281 90.253906 131.738281 89.335938 132.636719 88.4375 C 133.535156 87.539062 134.453125 86.664062 135.394531 85.808594 C 136.335938 84.957031 137.296875 84.128906 138.28125 83.320312 C 139.261719 82.515625 140.261719 81.734375 141.285156 80.976562 C 142.304688 80.222656 143.34375 79.488281 144.398438 78.785156 C 145.457031 78.078125 146.527344 77.398438 147.617188 76.746094 C 148.707031 76.09375 149.8125 75.464844 150.933594 74.867188 C 152.054688 74.269531 153.1875 73.699219 154.335938 73.152344 C 155.484375 72.609375 156.644531 72.097656 157.820312 71.609375 C 158.992188 71.125 160.179688 70.667969 161.375 70.238281 C 162.570312 69.8125 163.777344 69.414062 164.992188 69.042969 C 166.207031 68.675781 167.429688 68.335938 168.664062 68.027344 C 169.894531 67.71875 171.136719 67.441406 172.382812 67.191406 C 173.628906 66.945312 174.878906 66.726562 176.136719 66.542969 C 177.390625 66.355469 178.652344 66.199219 179.917969 66.074219 C 181.179688 65.949219 182.449219 65.855469 183.714844 65.796875 C 184.984375 65.734375 186.253906 65.703125 187.523438 65.703125 C 188.796875 65.703125 190.066406 65.734375 191.332031 65.796875 C 192.601562 65.855469 193.871094 65.949219 195.132812 66.074219 C 196.398438 66.199219 197.660156 66.355469 198.914062 66.542969 C 200.171875 66.726562 201.421875 66.945312 202.667969 67.191406 C 203.914062 67.441406 205.152344 67.71875 206.386719 68.027344 C 207.617188 68.335938 208.84375 68.675781 210.058594 69.042969 C 211.273438 69.414062 212.480469 69.8125 213.675781 70.238281 C 214.871094 70.667969 216.058594 71.125 217.230469 71.609375 C 218.40625 72.097656 219.566406 72.609375 220.714844 73.152344 C 221.863281 73.699219 222.996094 74.269531 224.117188 74.867188 C 225.238281 75.464844 226.34375 76.09375 227.433594 76.746094 C 228.523438 77.398438 229.59375 78.078125 230.652344 78.785156 C 231.707031 79.488281 232.746094 80.222656 233.765625 80.976562 C 234.785156 81.734375 235.789062 82.515625 236.769531 83.320312 C 237.75 84.128906 238.714844 84.957031 239.65625 85.808594 C 240.597656 86.664062 241.515625 87.539062 242.414062 88.4375 C 243.3125 89.335938 244.1875 90.253906 245.042969 91.195312 C 245.894531 92.136719 246.722656 93.101562 247.53125 94.082031 C 248.335938 95.0625 249.117188 96.066406 249.875 97.085938 C 250.628906 98.105469 251.363281 99.144531 252.066406 100.199219 C 252.773438 101.257812 253.453125 102.328125 254.105469 103.417969 C 254.757812 104.507812 255.386719 105.613281 255.984375 106.734375 C 256.582031 107.855469 257.152344 108.988281 257.695312 110.136719 C 258.242188 111.285156 258.753906 112.445312 259.242188 113.621094 C 259.726562 114.792969 260.183594 115.980469 260.613281 117.175781 C 261.039062 118.371094 261.4375 119.578125 261.808594 120.792969 C 262.175781 122.007812 262.515625 123.234375 262.824219 124.464844 C 263.132812 125.699219 263.410156 126.9375 263.660156 128.183594 C 263.90625 129.429688 264.125 130.679688 264.308594 131.9375 C 264.496094 133.191406 264.652344 134.453125 264.777344 135.71875 C 264.902344 136.980469 264.996094 138.25 265.054688 139.519531 C 265.117188 140.785156 265.148438 142.054688 265.148438 143.328125 Z M 265.148438 143.328125 " fill-opacity="1" fill-rule="nonzero"/></g><g clip-path="url(#58bad5deaa)"><path fill="#ebe645" d="M 157.523438 188.539062 L 157.523438 141.484375 L 133.898438 165.011719 Z M 217.839844 141.484375 L 217.839844 188.539062 L 241.542969 165.011719 Z M 214.023438 141.484375 L 190.398438 165.011719 L 214.023438 188.539062 Z M 164.082031 191.21875 L 211.332031 191.21875 L 187.707031 167.691406 Z M 135.023438 115.230469 C 134.433594 115.585938 133.769531 115.816406 133.101562 115.996094 L 133.101562 160.394531 L 156.726562 136.867188 Z M 185.8125 115.996094 C 185.09375 115.816406 184.503906 115.585938 183.890625 115.230469 L 162.160156 136.867188 L 185.785156 160.394531 L 185.785156 115.996094 Z M 191.523438 115.230469 C 190.9375 115.585938 190.269531 115.816406 189.605469 115.996094 L 189.605469 160.394531 L 213.230469 136.867188 Z M 242.3125 115.996094 C 241.644531 115.816406 241.003906 115.585938 240.390625 115.230469 L 218.6875 136.84375 L 242.3125 160.367188 Z M 244.234375 101.195312 C 248.410156 101.195312 251.742188 104.589844 251.742188 108.746094 C 251.742188 112.242188 249.359375 115.179688 246.128906 115.996094 L 246.128906 165.011719 C 246.128906 165.371094 246 165.675781 245.898438 165.957031 C 245.769531 166.136719 245.667969 166.261719 245.539062 166.363281 L 217.378906 194.433594 L 217.328125 194.484375 L 217.328125 194.535156 L 217.277344 194.535156 L 217.226562 194.585938 L 217.175781 194.585938 L 217.175781 194.636719 L 217.125 194.636719 L 217.125 194.6875 L 217.074219 194.6875 L 217.019531 194.742188 L 216.894531 194.742188 L 216.894531 194.792969 L 216.789062 194.792969 L 216.789062 194.84375 L 216.636719 194.84375 L 216.636719 194.894531 L 216.484375 194.894531 L 216.484375 194.945312 L 159.035156 194.945312 L 159.035156 194.894531 L 158.828125 194.894531 L 158.828125 194.84375 L 158.625 194.84375 L 158.625 194.792969 L 158.417969 194.792969 L 158.417969 194.742188 L 158.367188 194.742188 L 158.367188 194.6875 L 158.316406 194.6875 L 158.265625 194.636719 L 158.214844 194.636719 L 158.214844 194.585938 L 158.164062 194.585938 L 158.164062 194.535156 L 158.113281 194.535156 L 158.113281 194.484375 L 129.824219 166.390625 C 129.695312 166.261719 129.644531 166.160156 129.515625 165.984375 C 129.335938 165.675781 129.285156 165.394531 129.285156 165.039062 L 129.285156 115.996094 C 126.003906 115.152344 123.621094 112.242188 123.621094 108.746094 C 123.621094 104.589844 127.03125 101.195312 131.207031 101.195312 C 135.382812 101.195312 138.714844 104.589844 138.714844 108.746094 C 138.714844 110.125 138.355469 111.425781 137.6875 112.550781 L 159.417969 134.1875 L 181.199219 112.550781 C 180.53125 111.425781 180.121094 110.125 180.121094 108.746094 C 180.121094 104.589844 183.53125 101.195312 187.707031 101.195312 C 191.882812 101.195312 195.214844 104.589844 195.214844 108.746094 C 195.214844 110.125 194.855469 111.425781 194.191406 112.550781 L 215.917969 134.1875 L 237.699219 112.550781 C 237.035156 111.425781 236.625 110.125 236.625 108.746094 C 236.648438 104.589844 240.058594 101.195312 244.234375 101.195312 Z M 161.339844 141.484375 L 161.339844 188.539062 L 185.042969 165.011719 Z M 161.339844 141.484375 " fill-opacity="1" fill-rule="nonzero"/></g><g fill="#241d0a" fill-opacity="1"><g transform="translate(104.552055, 270.520823)"><g><path d="M 23.953125 0 L 14.171875 -13.34375 L 4.421875 0 L 0.734375 0 L 12.265625 -15.59375 L 1.46875 -30.328125 L 5.15625 -30.328125 L 14.296875 -17.9375 L 23.390625 -30.328125 L 26.859375 -30.328125 L 16.125 -15.6875 L 27.6875 0 Z M 23.953125 0 "/></g></g></g><g fill="#241d0a" fill-opacity="1"><g transform="translate(132.105999, 270.520823)"><g><path d="M 4.296875 -22.796875 L 7.359375 -22.796875 L 7.359375 0 L 4.296875 0 Z M 5.84375 -27.765625 C 5.207031 -27.765625 4.671875 -27.984375 4.234375 -28.421875 C 3.804688 -28.859375 3.59375 -29.378906 3.59375 -29.984375 C 3.59375 -30.554688 3.804688 -31.0625 4.234375 -31.5 C 4.671875 -31.9375 5.207031 -32.15625 5.84375 -32.15625 C 6.476562 -32.15625 7.007812 -31.941406 7.4375 -31.515625 C 7.875 -31.097656 8.09375 -30.601562 8.09375 -30.03125 C 8.09375 -29.394531 7.875 -28.859375 7.4375 -28.421875 C 7.007812 -27.984375 6.476562 -27.765625 5.84375 -27.765625 Z M 5.84375 -27.765625 "/></g></g></g><g fill="#241d0a" fill-opacity="1"><g transform="translate(142.893445, 270.520823)"><g/></g></g><g fill="#241d0a" fill-opacity="1"><g transform="translate(153.377612, 270.520823)"><g><path d="M 30.28125 -30.328125 L 30.28125 0 L 27.640625 0 L 8.140625 -24.609375 L 8.140625 0 L 4.9375 0 L 4.9375 -30.328125 L 7.578125 -30.328125 L 27.125 -5.71875 L 27.125 -30.328125 Z M 30.28125 -30.328125 "/></g></g></g><g fill="#241d0a" fill-opacity="1"><g transform="translate(187.733465, 270.520823)"><g><path d="M 25.390625 -22.796875 L 25.390625 -2.765625 C 25.390625 1.097656 24.441406 3.960938 22.546875 5.828125 C 20.660156 7.691406 17.8125 8.625 14 8.625 C 11.882812 8.625 9.878906 8.3125 7.984375 7.6875 C 6.097656 7.070312 4.5625 6.210938 3.375 5.109375 L 4.9375 2.765625 C 6.03125 3.753906 7.363281 4.519531 8.9375 5.0625 C 10.519531 5.613281 12.175781 5.890625 13.90625 5.890625 C 16.789062 5.890625 18.910156 5.21875 20.265625 3.875 C 21.628906 2.53125 22.3125 0.441406 22.3125 -2.390625 L 22.3125 -5.28125 C 21.363281 -3.84375 20.113281 -2.742188 18.5625 -1.984375 C 17.019531 -1.234375 15.3125 -0.859375 13.4375 -0.859375 C 11.289062 -0.859375 9.34375 -1.328125 7.59375 -2.265625 C 5.851562 -3.210938 4.484375 -4.53125 3.484375 -6.21875 C 2.492188 -7.90625 2 -9.816406 2 -11.953125 C 2 -14.097656 2.492188 -16.003906 3.484375 -17.671875 C 4.484375 -19.347656 5.847656 -20.648438 7.578125 -21.578125 C 9.316406 -22.503906 11.269531 -22.96875 13.4375 -22.96875 C 15.363281 -22.96875 17.109375 -22.578125 18.671875 -21.796875 C 20.234375 -21.015625 21.488281 -19.890625 22.4375 -18.421875 L 22.4375 -22.796875 Z M 13.734375 -3.59375 C 15.378906 -3.59375 16.863281 -3.945312 18.1875 -4.65625 C 19.519531 -5.363281 20.554688 -6.351562 21.296875 -7.625 C 22.035156 -8.894531 22.40625 -10.335938 22.40625 -11.953125 C 22.40625 -13.578125 22.035156 -15.015625 21.296875 -16.265625 C 20.554688 -17.523438 19.53125 -18.507812 18.21875 -19.21875 C 16.90625 -19.925781 15.410156 -20.28125 13.734375 -20.28125 C 12.085938 -20.28125 10.609375 -19.929688 9.296875 -19.234375 C 7.984375 -18.546875 6.957031 -17.566406 6.21875 -16.296875 C 5.476562 -15.023438 5.109375 -13.578125 5.109375 -11.953125 C 5.109375 -10.335938 5.476562 -8.894531 6.21875 -7.625 C 6.957031 -6.351562 7.984375 -5.363281 9.296875 -4.65625 C 10.609375 -3.945312 12.085938 -3.59375 13.734375 -3.59375 Z M 13.734375 -3.59375 "/></g></g></g><g fill="#241d0a" fill-opacity="1"><g transform="translate(216.587143, 270.520823)"><g><path d="M 12.265625 -22.96875 C 15.234375 -22.96875 17.507812 -22.222656 19.09375 -20.734375 C 20.6875 -19.242188 21.484375 -17.039062 21.484375 -14.125 L 21.484375 0 L 18.546875 0 L 18.546875 -3.546875 C 17.847656 -2.367188 16.828125 -1.445312 15.484375 -0.78125 C 14.140625 -0.113281 12.546875 0.21875 10.703125 0.21875 C 8.160156 0.21875 6.140625 -0.382812 4.640625 -1.59375 C 3.140625 -2.8125 2.390625 -4.414062 2.390625 -6.40625 C 2.390625 -8.34375 3.085938 -9.90625 4.484375 -11.09375 C 5.878906 -12.28125 8.109375 -12.875 11.171875 -12.875 L 18.421875 -12.875 L 18.421875 -14.25 C 18.421875 -16.21875 17.867188 -17.710938 16.765625 -18.734375 C 15.671875 -19.765625 14.066406 -20.28125 11.953125 -20.28125 C 10.515625 -20.28125 9.128906 -20.039062 7.796875 -19.5625 C 6.472656 -19.082031 5.332031 -18.425781 4.375 -17.59375 L 2.984375 -19.890625 C 4.140625 -20.867188 5.523438 -21.625 7.140625 -22.15625 C 8.765625 -22.695312 10.472656 -22.96875 12.265625 -22.96875 Z M 11.171875 -2.203125 C 12.910156 -2.203125 14.398438 -2.597656 15.640625 -3.390625 C 16.878906 -4.191406 17.804688 -5.34375 18.421875 -6.84375 L 18.421875 -10.578125 L 11.265625 -10.578125 C 7.367188 -10.578125 5.421875 -9.21875 5.421875 -6.5 C 5.421875 -5.164062 5.925781 -4.113281 6.9375 -3.34375 C 7.945312 -2.582031 9.359375 -2.203125 11.171875 -2.203125 Z M 11.171875 -2.203125 "/></g></g></g><g fill="#241d0a" fill-opacity="1"><g transform="translate(241.281684, 270.520823)"><g><path d="M 24.828125 -22.796875 L 24.828125 0 L 21.875 0 L 21.875 -4.15625 C 21.070312 -2.769531 19.960938 -1.691406 18.546875 -0.921875 C 17.128906 -0.160156 15.507812 0.21875 13.6875 0.21875 C 10.71875 0.21875 8.375 -0.609375 6.65625 -2.265625 C 4.9375 -3.929688 4.078125 -6.367188 4.078125 -9.578125 L 4.078125 -22.796875 L 7.15625 -22.796875 L 7.15625 -9.875 C 7.15625 -7.476562 7.742188 -5.660156 8.921875 -4.421875 C 10.109375 -3.179688 11.800781 -2.5625 14 -2.5625 C 16.394531 -2.5625 18.285156 -3.289062 19.671875 -4.75 C 21.054688 -6.207031 21.75 -8.234375 21.75 -10.828125 L 21.75 -22.796875 Z M 24.828125 -22.796875 "/></g></g></g></svg>