<svg xmlns="http://www.w3.org/2000/svg" xmlns:xlink="http://www.w3.org/1999/xlink" width="500" zoomAndPan="magnify" viewBox="0 0 375 374.999991" height="500" preserveAspectRatio="xMidYMid meet" version="1.0"><defs><g/><clipPath id="d75bed925e"><path d="M 60 60 L 316 60 L 316 315 L 60 315 Z M 60 60 " clip-rule="nonzero"/></clipPath><clipPath id="f39ebd660e"><path d="M -18.320312 187.648438 L 187.980469 -18.652344 L 394.277344 187.648438 L 187.980469 393.945312 Z M -18.320312 187.648438 " clip-rule="nonzero"/></clipPath><clipPath id="16dea4cc87"><path d="M -18.320312 187.648438 L 187.980469 -18.652344 L 394.277344 187.648438 L 187.980469 393.945312 Z M -18.320312 187.648438 " clip-rule="nonzero"/></clipPath></defs><rect x="-37.5" width="450" fill="#ffffff" y="-37.499999" height="449.999989" fill-opacity="1"/><rect x="-37.5" width="450" fill="#ffffff" y="-37.499999" height="449.999989" fill-opacity="1"/><rect x="-37.5" width="450" fill="#ff0080" y="-37.499999" height="449.999989" fill-opacity="1"/><g clip-path="url(#d75bed925e)"><g clip-path="url(#f39ebd660e)"><g clip-path="url(#16dea4cc87)"><path fill="#000000" d="M 254.109375 63.980469 C 229.3125 88.773438 204.523438 113.566406 179.726562 138.359375 C 185.230469 138.359375 190.730469 138.359375 196.230469 138.363281 C 171.4375 113.566406 146.644531 88.773438 121.851562 63.980469 C 117.351562 59.480469 109.84375 59.484375 105.347656 63.980469 C 91.671875 77.660156 77.992188 91.335938 64.3125 105.015625 C 59.8125 109.515625 59.8125 117.019531 64.3125 121.519531 C 89.105469 146.3125 113.898438 171.105469 138.695312 195.898438 C 138.691406 190.398438 138.691406 184.898438 138.691406 179.394531 C 113.898438 204.1875 89.105469 228.980469 64.3125 253.777344 C 59.8125 258.273438 59.8125 265.78125 64.3125 270.28125 C 77.992188 283.957031 91.667969 297.636719 105.347656 311.3125 C 109.84375 315.808594 117.351562 315.8125 121.851562 311.3125 C 146.644531 286.519531 171.4375 261.726562 196.230469 236.933594 C 190.730469 236.933594 185.230469 236.933594 179.726562 236.933594 C 204.519531 261.726562 229.3125 286.519531 254.109375 311.3125 C 258.601562 315.808594 266.113281 315.8125 270.609375 311.3125 C 284.289062 297.636719 297.96875 283.957031 311.644531 270.277344 C 316.140625 265.78125 316.140625 258.273438 311.644531 253.777344 C 286.851562 228.980469 262.058594 204.1875 237.265625 179.394531 C 237.265625 184.898438 237.265625 190.398438 237.265625 195.898438 C 262.058594 171.105469 286.851562 146.3125 311.644531 121.519531 C 316.144531 117.023438 316.140625 109.511719 311.644531 105.015625 C 297.96875 91.339844 284.289062 77.660156 270.613281 63.980469 C 259.96875 53.339844 243.46875 69.84375 254.109375 80.484375 C 267.789062 94.164062 281.464844 107.839844 295.144531 121.519531 C 295.144531 116.015625 295.144531 110.515625 295.140625 105.015625 C 270.347656 129.808594 245.554688 154.601562 220.761719 179.394531 C 216.265625 183.890625 216.265625 191.402344 220.761719 195.898438 C 245.554688 220.695312 270.347656 245.484375 295.144531 270.28125 C 295.144531 264.777344 295.144531 259.277344 295.144531 253.777344 C 281.464844 267.453125 267.785156 281.132812 254.109375 294.8125 C 259.609375 294.8125 265.109375 294.8125 270.613281 294.808594 C 245.820312 270.015625 221.027344 245.222656 196.234375 220.429688 C 191.734375 215.933594 184.226562 215.929688 179.726562 220.429688 C 154.933594 245.222656 130.140625 270.015625 105.347656 294.8125 C 110.847656 294.8125 116.351562 294.808594 121.851562 294.808594 C 108.175781 281.132812 94.496094 267.453125 80.816406 253.777344 C 80.816406 259.277344 80.816406 264.78125 80.816406 270.28125 C 105.613281 245.488281 130.40625 220.695312 155.199219 195.902344 C 159.699219 191.402344 159.699219 183.894531 155.199219 179.394531 C 130.40625 154.601562 105.613281 129.808594 80.816406 105.015625 C 80.816406 110.515625 80.820312 116.019531 80.816406 121.519531 C 94.496094 107.84375 108.175781 94.164062 121.851562 80.484375 C 116.351562 80.484375 110.851562 80.484375 105.347656 80.484375 C 130.140625 105.277344 154.933594 130.074219 179.730469 154.867188 C 184.226562 159.363281 191.734375 159.363281 196.234375 154.867188 C 221.027344 130.070312 245.820312 105.28125 270.613281 80.484375 C 281.253906 69.84375 264.75 53.339844 254.109375 63.980469 Z M 254.109375 63.980469 " fill-opacity="1" fill-rule="nonzero"/></g></g></g><g fill="#000000" fill-opacity="1"><g transform="translate(145.168803, 236.74252)"><g><path d="M 1.234375 -9.578125 L 8.28125 -8.28125 L 5.84375 -5.84375 L 1.578125 -6.671875 L 2.40625 -2.40625 L 0.0625 -0.0625 L -1.171875 -6.984375 L -7.71875 -8.21875 L -5.375 -10.5625 L -1.515625 -9.765625 L -2.296875 -13.640625 L 0.078125 -16.015625 Z M 1.234375 -9.578125 "/></g></g></g><g fill="#000000" fill-opacity="1"><g transform="translate(162.627239, 219.284084)"><g><path d="M 2.8125 -2.8125 L 0.796875 -0.796875 L -7.171875 -8.765625 L -5.15625 -10.78125 Z M 2.8125 -2.8125 "/></g></g></g><g fill="#000000" fill-opacity="1"><g transform="translate(175.352737, 206.558587)"><g><path d="M 8.140625 -8.140625 L 6.359375 -6.359375 L -2.203125 -7.609375 L 2.703125 -2.703125 L 0.796875 -0.796875 L -7.171875 -8.765625 L -5.390625 -10.546875 L 3.203125 -9.296875 L -1.71875 -14.21875 L 0.171875 -16.109375 Z M 8.140625 -8.140625 "/></g></g></g><g fill="#000000" fill-opacity="1"><g transform="translate(193.402785, 188.508538)"><g><path d="M 2.03125 -10.15625 L 3.78125 -11.90625 L 6.90625 -8.78125 C 6.769531 -8.039062 6.492188 -7.269531 6.078125 -6.46875 C 5.660156 -5.664062 5.175781 -4.988281 4.625 -4.4375 C 3.40625 -3.21875 2 -2.59375 0.40625 -2.5625 C -1.175781 -2.539062 -2.546875 -3.109375 -3.703125 -4.265625 C -4.859375 -5.421875 -5.40625 -6.796875 -5.34375 -8.390625 C -5.289062 -9.992188 -4.632812 -11.425781 -3.375 -12.6875 C -2.769531 -13.289062 -2.070312 -13.773438 -1.28125 -14.140625 C -0.488281 -14.503906 0.296875 -14.710938 1.078125 -14.765625 L 1.3125 -12.25 C 0.769531 -12.226562 0.226562 -12.109375 -0.3125 -11.890625 C -0.851562 -11.671875 -1.3125 -11.375 -1.6875 -11 C -2.34375 -10.34375 -2.664062 -9.566406 -2.65625 -8.671875 C -2.644531 -7.773438 -2.304688 -6.992188 -1.640625 -6.328125 C -0.960938 -5.648438 -0.175781 -5.304688 0.71875 -5.296875 C 1.625 -5.296875 2.40625 -5.625 3.0625 -6.28125 C 3.488281 -6.707031 3.835938 -7.304688 4.109375 -8.078125 Z M 2.03125 -10.15625 "/></g></g></g><g fill="#000000" fill-opacity="1"><g transform="translate(210.963612, 170.947712)"><g><path d="M 4.625 -7.5625 L 1.140625 -4.078125 L 2.015625 -2.015625 L -0.0625 0.0625 L -4.59375 -11.34375 L -2.515625 -13.421875 L 8.8125 -8.8125 L 6.65625 -6.65625 Z M 2.484375 -8.484375 L -1.59375 -10.3125 L 0.1875 -6.1875 Z M 2.484375 -8.484375 "/></g></g></g><g fill="#000000" fill-opacity="1"><g transform="translate(228.831622, 153.079702)"><g><path d="M 0 -15.9375 L 4.625 -11.3125 C 5.675781 -10.257812 6.1875 -9.097656 6.15625 -7.828125 C 6.125 -6.554688 5.546875 -5.359375 4.421875 -4.234375 C 3.304688 -3.117188 2.101562 -2.535156 0.8125 -2.484375 C -0.46875 -2.441406 -1.632812 -2.945312 -2.6875 -4 L -7.3125 -8.625 L -5.28125 -10.65625 L -0.65625 -6.03125 C -0.125 -5.5 0.445312 -5.226562 1.0625 -5.21875 C 1.6875 -5.21875 2.242188 -5.460938 2.734375 -5.953125 C 3.222656 -6.441406 3.457031 -6.988281 3.4375 -7.59375 C 3.414062 -8.195312 3.140625 -8.765625 2.609375 -9.296875 L -2.015625 -13.921875 Z M 0 -15.9375 "/></g></g></g></svg>